<svg xmlns="http://www.w3.org/2000/svg" version="1" viewBox="0 0 671 569">
  <path d="M27 339c-5 1-10 5-10 10 0 13 5 25 5 38v12c2 2 5-1 6-3 5-6 4-16 5-24l-1-28c-1-3-3-5-5-5zM157 437c-19 2-34 13-51 20l-23 13c-6 6-9 15-6 23 2 4 6 6 11 5 14-2 27-10 39-17 15-10 30-20 43-33 2-2 2-5-1-7-3-3-8-4-12-4zM397 210c-10 1-22 6-25 17-2 9 2 22 12 25 16 5 36-9 35-26-1-11-13-16-22-16z"/>
  <path class="horse-ears" d="M643 82l-7 4c-10 5-19 11-27 17-12 10-23 22-33 34l-4 6c-1 2 1 3 2 2 5 0 10-1 14-3 13-3 24-10 33-19 6-7 11-16 16-24l8-15-2-2zM511 14l-12 3c-13 4-27 8-38 16-5 3-10 6-13 11-2 1-2 3-2 5l-1 11c0 1 0 2 2 2s3-2 4-3c8-8 18-14 28-19l21-7c2-1 4-2 4-4l6-9 2-5-1-1z" fill="#633b22"/>
  <path d="M653 78c-3 2-4 5-6 8-10 18-19 37-35 49-15 11-34 13-52 16l-22 2c-1 2 2 2 3 3 10 3 20 6 31 5 16-1 31-10 43-21 16-15 27-35 36-55 1-2 3-5 2-7z"/>
  <path class="horse-mane" d="M600 161c-12 3-23 8-35 7-5 0-9-2-13 0-2 3 1 7 1 11 10 36 19 72 23 109 4 32 5 64 10 96 2 14 5 28 11 40 4 7 14 9 21 11 4 0 9 1 11-2-1-4-5-5-8-8a83 83 0 0 1-20-36c0-2 0-4 2-2 4 0 8 4 12 3 2-2-2-4-3-6l-17-20c12 3 24 8 36 7 2-2-2-4-3-5-15-10-19-28-23-43l-11-43c5 3 10 9 16 12 3-1 0-5-1-7l-6-15c10 5 18 15 27 22 2-5-1-11-2-16-3-19-9-39-22-54l-8-11 33 6c2-2-2-4-3-5l-30-22c10-3 20-1 30-3 1-2-3-4-4-6-7-6-14-14-23-19l-1-1z" fill="#eae6e3"/>
  <path d="M277 568c-2-2-1-3 5-13 6-12 9-20 10-30 0-9-2-19-5-27-6-10-22-23-30-23-10 0-37 12-53 23a85 85 0 0 0-31 32c-6 12-11 17-20 22-22 10-63 6-80-8-4-3-8-12-8-16l-2-8c-3-8-2-21 2-35 3-5 4-11 4-12 1-1-1-1-7-1-13 1-28 1-34-1-12-2-22-10-26-19-4-8-3-17 4-33 8-19 9-29 5-47-3-14-3-28 0-36 6-16 21-31 48-47l37-21a1048 1048 0 0 0 118-74c2-2 2-3 0-7-2-5-2-16 0-24s9-22 16-30a108 108 0 0 1 82-37c3 0 3 0 3-5 0-12 6-22 19-34 12-11 26-18 38-18 4-1 7 0 8 1 2 1 2 1 0 5l-1 4 7-4c11-8 20-12 32-17 9-3 11-4 12-2 1 1 0 11-3 21-1 4 3 1 9-9l7-10 2 3c2 4 3 4 6 1 7-7 22-15 46-22a1453 1453 0 0 0 36-10c1 1-2 4-5 7-6 8-14 18-14 20 0 1 2 2 11 2s11 0 13 2c1 1 1 1-3 3l-9 8-19 22 11-7c9-7 21-15 22-14s-6 13-11 20l-8 10-2 3 3-1 10-2c11-3 33-3 42 0 6 1 17 7 21 10 2 1 17-5 51-19 12-5 23-10 24-9l1 3c-1 7-21 50-31 65-7 11-17 22-25 28l-6 5c1 2 20 20 24 22l11 5 7 3c1 3-17 9-25 9-7 0-8 2-2 6a375 375 0 0 0 30 20c1 3-18 4-31 2l-8-2 4 7c8 12 14 30 17 52 4 19 5 32 5 33-1 1-6-4-12-10l-10-10 4 9c5 9 9 16 10 22 0 3 0 4-1 3-1 0-7-6-13-14-11-13-13-15-13-13 0 3 9 36 12 42 5 13 14 20 26 22l6 2c1 1-4 5-10 8-5 3-7 3-16 3h-10l6 8c8 9 11 13 13 21v9l-9-7c-9-9-15-13-15-12 0 2 4 10 9 16 6 9 12 13 24 17 6 2 6 2 0 5-12 8-21 9-31 6l-7-2 5 10c5 11 9 20 8 21l-5 1c-8-2-24 6-62 29a338 338 0 0 1-190 55c-42 1-50 2-70 11l-11 4-2-1zm30-20c11-3 24-4 48-4a357 357 0 0 0 193-56 276 276 0 0 1 55-28l-3-5c-8-14-18-39-22-59-4-15-5-22-7-55a973 973 0 0 0-5-47c-4-33-14-77-26-118l-3-13-10-4c-8-4-10-6-11-9l-1-3h17c19 2 26 1 32-3l12-13a190 190 0 0 1 78-59c2 0 4-2 4-3l-12 4a1016 1016 0 0 1-117 43c-2 0 0-3 7-7l6-4h-9c-8 0-12 0-11-2l22-6c21-6 35-10 36-12l-2-2c-12-5-38-5-57 0l-19 6c-12 6-12 5 2-8l13-13c3-3 3-3-11 6-16 11-29 17-29 13 0-2 8-12 32-37l10-13-10 2c-30 7-53 20-67 39-10 14-12 12-7-4 4-13 7-26 6-29-1-2-2 0-4 4-5 8-8 12-17 22-11 11-25 21-25 17l7-10c4-6 10-15 12-21 6-10 10-23 9-24s-4 1-7 3l-14 8c-18 11-32 22-43 35l-8 7-3-2c0-3 7-16 15-27l7-10c-1-1-6 1-11 4-21 11-35 26-37 42v6l-12 2c-37 5-67 24-80 50-6 12-7 20-6 36l1 8-4 4c-7 9-44 35-73 52l-66 36c-26 14-40 24-50 35-5 6-10 13-10 15l4-1c4-3 7-1 10 5 1 4 2 8 2 27-1 21-1 22-3 27l-9 12c-6 5-7 7-11 15-7 17-8 25-1 32 8 8 22 11 43 9s30-5 51-17l20-11c34-15 56-7 55 22 0 12-2 16-19 32-28 27-55 41-78 42l-10 1c0 2 6 6 10 8 14 6 36 9 50 6 9-2 17-5 21-10l9-13c8-16 26-31 51-44 34-17 71-22 103-13 16 5 38 4 58-3 31-10 83-44 118-78 26-25 31-36 32-64v-15c1-1 4 5 6 14 5 15 4 30-3 43-9 19-46 53-86 80-47 31-78 42-113 38-8 0-11-1-15-3-6-4-14-5-29-6-11-1-13 0-7 5 9 7 13 14 17 23 2 6 3 8 3 21-1 13-1 15-3 21-4 9-4 10-1 9l10-3zM65 406v-19c0-15 0-16 2-21 6-14 20-22 38-22 15 0 22 4 27 13 2 5 3 7 3 16s-1 10-3 14c-2 3-9 8-11 9-5 4-48 11-53 12-4 0 8-5 11-6 4 0 28-4 34-7 14-7 15-9 15-19-1-13-5-20-14-23-4-1-18 0-24 1-5 2-13 7-16 11-3 6-4 10-5 27 0 19-2 21-4 14zm107-43c0-2 14-12 25-17l15-9 24-13c2 0 0 2-7 8a94 94 0 0 1-26 17l-18 9-13 5zm350-84l-4-10c-6-16-16-30-32-47l-9-10c1-1 10 4 18 10 9 7 15 15 21 27 7 13 12 34 9 34l-3-4zm-157-13c-6-2-7-3-11-8-9-13-8-35 1-50 9-13 24-22 40-22l8 1c1 1 0 2-7 3-21 3-36 14-42 31-3 9-3 26 0 26l2-6c1-9 6-18 11-24 4-6 14-12 22-15 10-3 25-2 32 1l6 2c2-1 2-1 4 1 2 3 3 12 3 21-1 11-4 18-11 26-11 10-24 14-42 14l-16-1zm36-7c9-2 15-7 20-13 6-8 9-21 6-29-2-4-10-10-14-10h-3l4 4c12 9 12 24 0 36-7 6-14 9-22 9-14 0-23-8-25-23l-1-5-2 5c-2 5-5 21-4 24 3 5 27 7 41 2zm1-10c9-4 16-13 16-21 0-13-15-20-31-15-10 4-14 9-14 20 0 7 2 11 6 15 7 5 14 5 23 1zm53-22l2-8c3-7 3-23 1-29-1-6-17-21-25-26-27-16-69-15-98 3-5 3-5 1 0-4 9-8 25-15 39-18 11-1 29-1 39 1 21 5 39 17 47 32 5 8 8 19 8 27 0 7-1 7-5 15-5 6-8 9-8 7zm18-75l3-2c11-6 29-19 29-22 0-2-23 1-33 4l-8 5c-4 3-6 2-4-2l6-8 4-7c-1 0-8 6-13 14l-7 7c-2-1-1-9 2-30l3-20c0-1-4 3-7 9-4 8-7 17-8 29 0 8 0 8-2 7-3-3-2-20 1-29 4-13 16-27 21-25 1 0 1 7-2 28l-1 14 6-5c4-4 10-7 13-9 5-3 16-5 16-3l-6 6-9 8-2 4 3-1c11-2 18-3 25-2l8 2c3 3-7 14-17 21-9 6-21 10-21 7zm-90-22c-5-3-10-8-12-11-1-5 0-6 3-5 6 2 5 1-1-5l-7-7c2-4 17-3 26 2 11 5 11 5 10 3l-6-8c-3-3-5-6-4-7s8 0 13 3l13 10c4 5 7 7 7 6a436 436 0 0 0 5-11 298 298 0 0 1 1 18l-1 9-5-6c-4-6-15-16-16-15l4 6 3 7-12-4c-19-9-35-13-22-5l24 18c0 3-11 1-21-3-2-1-2 0 0 2 5 5 3 6-2 3zM91 521c1-1 0-15-1-16s-3-2-5-1h-4v8l1 10 9-1zm-14-10c0-8 0-9-2-11-4-3-4-2-4 7 0 8 1 13 5 13l1-9zm26 7l4-2-3-14h-5l-4 1v6c0 6 1 10 3 10l5-1zm16-7c7-4 8-5 5-11l-3-6c-1-1-11 4-12 5s0 4 1 7l3 6c0 2 0 2 6-1zm19-12l7-6-5-12-15 10 6 12 7-4zm-42-4c6-1 17-6 27-12 17-10 47-35 47-38s-4-5-8-7c-9-2-22 3-47 16l-23 12c-7 3-9 3-11 7-6 10-6 21 1 23 4 1 7 1 14-1zm60-11l5-5-5-10-6 5-6 5 3 5 3 4 6-4zm13-13v-6c-2-4-3-4-7-1-2 2-2 3 0 7 3 3 4 3 7 0zm4-10c2-5 0-8-3-5-2 2-2 4-1 5 2 2 4 2 4 0zm455-28v-2c-7-4-11-8-15-14-5-7-11-22-13-28 0-3 0-4 2-4l7 3c6 3 7 3 5 0l-20-24c-1-2-1-2 13 2 9 4 24 6 24 4l-3-3c-11-6-18-20-23-43a238 238 0 0 0-12-45l12 8c7 6 7 6 0-8-2-5-4-9-3-10s12 7 20 15l8 7c1-1-4-23-7-33-4-16-10-27-21-40l-5-7c0-1 3-1 21 3 12 3 16 3 11 0a506 506 0 0 1-32-25c0-1 2-2 16-2h15c-1-2-23-23-26-24-2-2-3-1-10 1-11 5-21 6-31 5l-9-1 2 9a845 845 0 0 1 28 161c2 40 5 56 12 77 4 11 6 13 17 17 8 3 15 3 17 1zM26 397c5-6 6-8 6-31 0-21-1-23-2-25-2-2-3-2-6 0-7 3-7 8-3 28a117 117 0 0 1 2 29l3-1zm558-239c19-7 36-21 49-41 8-12 22-39 20-39l-7 11c-19 39-33 52-64 59a221 221 0 0 1-43 6l21 6c5 1 19 0 24-2zm3-16c17-5 30-14 39-27l18-32c-1-1-21 11-33 20s-26 24-38 40c-2 2 4 2 14-1zM452 57c9-9 27-19 43-24 7-2 8-2 9-5l5-8c2-2 3-5 2-5l-16 5c-21 6-35 13-42 20-5 5-6 5-6 9l-1 9 1 3 5-4z"/>
  <path class="horse-face" d="M422 32c-11 5-21 12-32 19-15 9-26 22-39 34-4-2 1-7 1-9 5-10 13-19 18-29-1-3-5 1-7 1-16 8-33 19-40 37l-2 13c-30 3-60 14-81 37a63 63 0 0 0-17 43l1 17c-8 10-20 17-30 25-35 24-72 45-109 65-23 13-48 25-63 48-1 2-1 5 2 4 3 0 6-3 8 0 6 7 3 16 4 24v30c-5 12-18 19-22 31-3 9-9 20-2 30 13 16 36 12 54 10 12-1 24-5 34-11 19-9 36-21 57-22 12-1 24 8 25 20 0 8 2 16-3 23-9 11-20 20-31 29-19 15-41 29-66 30-2 0-6-1-7 2 3 4 8 7 13 9 15 6 32 7 48 5 11-2 21-7 27-17 5-9 11-19 19-26 24-22 55-36 87-40 18-2 37-1 55 4 12 2 24 2 36 0 26-4 50-18 72-32 30-19 58-42 82-69 9-10 13-24 14-38l1-21c6 15 10 32 4 48s-19 29-31 41c-29 26-62 50-97 68-24 12-51 19-78 15-9-2-18-7-27-8-7-1-15-3-22-1-3 3 2 5 3 7 8 8 15 18 18 29 1 10 0 21-1 31-1 4-4 9-4 13 3 2 7-1 9-1 22-6 45-4 67-5 26 0 51-3 76-10 38-10 73-28 107-48 15-9 31-19 49-25 3-2-1-7-2-10-16-29-25-61-27-94a885 885 0 0 0-36-195c-6-4-14-6-19-12-1-1-3-4-1-3 14 0 27 3 41 0 9-3 14-12 20-18 20-24 45-43 73-56 3 0 9-2 7-6-4 0-8 3-12 4-37 16-76 29-114 42-4 2-1 0 0-1 4-3 8-5 10-8 0-2-5-1-7-1h-11c18-6 38-10 56-17 3-1 0-4-2-5-19-6-39-4-59 1l-24 8c8-8 17-15 24-24 0-3-4 0-5 1-11 6-22 15-34 19-3 1 0-2 0-3 12-16 27-30 39-45 1-3-4-2-5-2-28 6-55 18-73 40-2 3-5 8-8 9 2-14 9-27 8-41 0-3-3 0-4 1-9 17-22 30-38 41-2 1-3 1-1-1 10-16 22-33 26-52 0-1 0-2-2-2zm36 51c3 2 1 6 1 9-1 11-3 21-3 32 2 2 4-2 6-3 8-7 17-14 28-13-5 5-12 9-16 16 1 3 5 0 7 0 10-1 20-2 29 1 2 2-1 5-2 6-9 10-21 19-33 21 10-7 22-13 30-22 2-3-3-4-5-3-13 0-27 2-38 10-3 2 0-2 1-3l8-13c-2-3-4 1-6 2l-15 17c0-10 2-21 4-31l2-18c-2-3-4 1-5 3-9 12-11 26-12 40-1 1-1-3-1-4-1-12 1-24 7-34 3-5 7-11 13-13zm-64 10c13 0 21 12 30 19 4-1 3-6 5-8 1-3 1-1 1 1 0 6 0 13-2 19-5-7-11-14-18-19-3 1 0 4 1 6l3 7c-12-4-23-12-36-13-3 0-1 3 1 4l25 19c-7 0-13-3-20-4-2 2 2 5 2 6-6-2-12-7-14-13-1-4 4-1 5-1 3-1-1-4-2-6l-8-8c9-3 19 0 27 3 3 1 6 4 9 3 0-4-4-7-6-10l-4-5h1zm-4 53c12 0 24 0 34 5 17 6 33 18 39 36 3 8 4 17 3 25l-9 13c4-11 2-23 3-35a76 76 0 0 0-53-37c-24-3-49 0-70 12-2 1-5 2-2 0 11-11 26-17 40-19h15zm6 41l5 1c-10 2-20 3-29 9-11 8-20 20-21 34 0 5-1 11 1 16 2 2 4 0 4-2 3-14 8-28 21-35 12-9 29-11 43-6 3 1 6 3 9 1 4 6 3 14 4 20 0 11-4 21-12 28a51 51 0 0 1-39 13c-8 0-18 1-25-5-10-13-10-32-4-46 7-17 25-28 43-28zm84 26c15 8 28 20 35 36 4 10 9 21 10 33-6-13-11-26-19-37-8-12-18-21-26-32zM233 327c-11 10-23 18-37 24l-22 11c11-10 25-16 38-24l22-11h-1zm-129 19c9 0 20 0 25 9 6 7 4 16 4 25 0 7-7 11-13 15-10 5-22 6-32 8l-21 5c-2-7-1-15-1-22 1-8-2-16 3-22 6-9 15-16 26-18h9z" fill="#9e6037"/>
  <path d="M105 352c-9 0-20 1-27 8-5 5-8 11-9 18l-1 29c1 2 4-1 6-2 7-3 16-3 24-5 8-1 17-4 24-9 3-2 7-5 7-10 0-9-1-19-8-25-5-4-10-4-16-4z"/>
</svg>